<?xml version="1.0" standalone="no"?>
<!DOCTYPE svg PUBLIC "-//W3C//DTD SVG 1.1//EN" "http://www.w3.org/Graphics/SVG/1.1/DTD/svg11.dtd" >
<svg xmlns="http://www.w3.org/2000/svg">
<metadata></metadata>
<defs>
<font id="sanserifficregular" horiz-adv-x="1100" >
<font-face units-per-em="2048" ascent="1638" descent="-410" />
<missing-glyph horiz-adv-x="508" />
<glyph unicode="&#xd;" horiz-adv-x="508" />
<glyph unicode=" "  horiz-adv-x="508" />
<glyph unicode="&#x09;" horiz-adv-x="508" />
<glyph unicode="&#xa0;" horiz-adv-x="508" />
<glyph unicode="!" horiz-adv-x="200" d="M0 350v1050h100v-1050h-100zM100 100v-100h-100v100h100z" />
<glyph unicode="&#x22;" horiz-adv-x="350" d="M0 1150h100v250h-100v-250zM150 1150h100v250h-100v-250z" />
<glyph unicode="#" horiz-adv-x="800" d="M103 400l94 600h-147v100h163l87 550h100l-87 -550h200l87 550h100l-87 -550h87v-100h-103l-94 -600h147v-100h-163l-87 -550h-100l87 550h-200l-87 -550h-100l87 550h-87v100h103zM297 1000l-94 -600h200l94 600h-200z" />
<glyph unicode="$" d="M600 1q-57 0 -123 7q-39 4 -77 11v-69h-100v94q-134 40 -251 120l49 85q100 -63 202 -99v547l-35 8q-141 33 -217 156.5t-43 264.5q34 141 157 217q57 35 138 48v59h100v-50q56 0 122 -7q39 -4 78 -12v69h100v-93q133 -41 249 -120l-49 -85q-99 63 -200 98v-546l33 -8 q141 -33 217 -156.5t43 -264.5q-34 -141 -157 -217q-56 -35 -136 -48v-60h-100v51zM300 1292q-53 -10 -88 -32q-86 -56 -110 -157t31 -189q53 -87 153 -111l14 -3v492zM400 776l200 -48v551q-49 11 -98 16q-55 5 -102 5v-524zM700 110q52 10 86 32q86 55 110 156t-30 189 q-54 87 -154 111l-12 3v-491zM400 121q48 -10 96 -15q57 -6 104 -5v524l-200 48v-552z" />
<glyph unicode="%" horiz-adv-x="800" d="M0 -250l600 1900h100l-600 -1900h-100zM298.5 1349q51.5 -51 51.5 -124q0 -72 -51.5 -123.5t-123.5 -51.5q-73 0 -124 51.5t-51 123.5q0 73 51 124t124 51q72 0 123.5 -51zM175 1300q-31 0 -53 -22t-22 -53t22 -53t53 -22t53 22t22 53t-22 53t-53 22zM648.5 299 q51.5 -51 51.5 -124q0 -72 -51.5 -123.5t-123.5 -51.5q-73 0 -124 51.5t-51 123.5q0 73 51 124t124 51q72 0 123.5 -51zM525 250q-31 0 -53 -22t-22 -53t22 -53t53 -22t53 22t22 53t-22 53t-53 22z" />
<glyph unicode="&#x26;" d="M650 121q155 33 305 128l49 -85q-191 -130 -427.5 -156t-359.5 50t-157 217q-33 141 43 264.5t217 156.5l17 4h-1l-17 4q-141 33 -217 156.5t-43 264.5q34 141 157 217t359.5 50t427.5 -156l-49 -85q-194 123 -398 143t-290 -35.5t-110 -156.5t30 -189q54 -87 154 -111 q97 -23 210 -36v184h100v-193q96 -7 203 -7v-100q-107 0 -203 -7v-522zM550 634q-112 -13 -209 -36q-100 -24 -154 -111q-54 -88 -30 -189t110 -156q85 -55 283 -37v529z" />
<glyph unicode="'" horiz-adv-x="200" d="M0 1150h100v250h-100v-250z" />
<glyph unicode="(" horiz-adv-x="450" d="M350 1550v100q-350 0 -350 -950t350 -950v100q-250 0 -250 850t250 850z" />
<glyph unicode=")" horiz-adv-x="450" d="M0 -150v-100q350 0 350 950t-350 950v-100q250 0 250 -850t-250 -850z" />
<glyph unicode="*" horiz-adv-x="600" d="M442 982l50 86l-142 82l142 82l-50 86l-142 -82v164h-100v-164l-142 82l-50 -86l142 -82l-142 -82l50 -86l142 82v-164h100v164z" />
<glyph unicode="+" horiz-adv-x="600" d="M200 450h100v200h200v100h-200v200h-100v-200h-200v-100h200v-200z" />
<glyph unicode="," horiz-adv-x="200" d="M0 -150h100v250h-100v-250z" />
<glyph unicode="-" horiz-adv-x="600" d="M0 650h500v100h-500v-100z" />
<glyph unicode="." horiz-adv-x="200" d="M0 0h100v100h-100v-100z" />
<glyph unicode="/" horiz-adv-x="800" d="M0 -250l600 1900h100l-600 -1900h-100z" />
<glyph unicode="0" d="M853.5 1195q146.5 -205 146.5 -495t-146.5 -495t-353.5 -205t-353.5 205t-146.5 495t146.5 495t353.5 205t353.5 -205zM500 1300q-166 0 -283 -175.5t-117 -424.5t117 -424.5t283 -175.5t283 175.5t117 424.5t-117 424.5t-283 175.5z" />
<glyph unicode="1" horiz-adv-x="300" d="M200 1400v-1400h-100v1200h-100l100 200h100z" />
<glyph unicode="2" d="M819 858q109 122 77 245q-24 101 -110 156.5t-290 35.5t-447 -180l-49 85q240 167 476.5 193t359.5 -50t157 -217q41 -163 -107 -341l-750 -685h864v-100h-1000v100h8l-9 10l819 749z" />
<glyph unicode="3" d="M716 700l17 -4q141 -33 217 -156.5t43 -264.5q-34 -141 -157 -217t-359.5 -50t-427.5 156l49 85q194 -123 398 -143t290 35.5t110 156.5t-30 189q-54 87 -154 111q-217 52 -512 52v100q296 0 513 52q100 24 154 111q54 88 30 189t-110 156.5t-290 35.5t-398 -143l-49 85 q191 130 427.5 156t359.5 -50t157 -217q33 -141 -43 -264.5t-217 -156.5l-17 -4h-1z" />
<glyph unicode="4" d="M800 1245l-673 -895h673v895zM800 250h-800v100h4l773 1050h123v-1050h100v-100h-100v-250h-100v250z" />
<glyph unicode="5" d="M150 1400h750v-100h-667l-84 -440l2 2l2 -2q145 140 347 140q207 0 354 -146q146 -147 146 -354t-146 -354q-147 -146 -354 -146t-354 146q-146 147 -146 354h100q0 -166 117 -283t283 -117t283 117t117 283t-117 283t-283 117t-283 -117l-1 2l-93 -93l-97 54z" />
<glyph unicode="6" d="M500 900q-166 0 -283 -117t-117 -283t117 -283t283 -117t283 117t117 283t-117 283t-283 117zM144 851l3 3q146 146 353 146t353.5 -146.5t146.5 -353.5t-146.5 -353.5t-353.5 -146.5t-353.5 146.5t-146.5 353.5q0 900 750 900l50 -100q-524 0 -656 -449z" />
<glyph unicode="7" d="M873 1300h-873v100h1000v-100h-4l-869 -1300h-123z" />
<glyph unicode="8" horiz-adv-x="950" d="M425 750q-135 0 -230 -95t-95 -230t95 -230t230 -95t230 95t95 230t-95 230t-230 95zM425 1300q-93 0 -159 -66t-66 -159t66 -159t159 -66t159 66t66 159t-66 159t-159 66zM612 808q61 -30 114 -82q124 -125 124 -301t-124.5 -300.5t-300.5 -124.5t-300.5 124.5 t-124.5 300.5t125 301q52 52 113 82q-22 16 -43 37q-95 95 -95 230t95 230t230 95t230 -95t95 -230t-95 -230q-21 -21 -43 -37z" />
<glyph unicode="9" d="M500 500q166 0 283 117t117 283t-117 283t-283 117t-283 -117t-117 -283t117 -283t283 -117zM856 549l-2 -2q-147 -147 -354 -147t-353.5 146.5t-146.5 353.5t146.5 353.5t353.5 146.5t353.5 -146.5t146.5 -353.5q0 -900 -750 -900l-50 100q524 0 656 449z" />
<glyph unicode=":" horiz-adv-x="200" d="M0 400h100v100h-100v-100zM0 900h100v100h-100v-100z" />
<glyph unicode=";" horiz-adv-x="200" d="M0 250h100v250h-100v-250zM0 900h100v100h-100v-100z" />
<glyph unicode="&#x3c;" horiz-adv-x="599" d="M499 861l-378 -162l378 -162v-109l-500 215v113l500 214v-109z" />
<glyph unicode="=" horiz-adv-x="600" d="M0 800h500v100h-500v-100zM0 500h500v100h-500v-100z" />
<glyph unicode="&#x3e;" horiz-adv-x="599" d="M-1 537l378 163l-378 161v109l500 -214v-113l-500 -215v109z" />
<glyph unicode="?" d="M-5 350q-2 99 53 190q76 123 217 156l447 107q100 24 153 111q55 88 31 189t-110 156.5t-290 35.5t-398 -143l-49 85q191 130 427.5 156t359.5 -50t157 -217q33 -141 -43 -264.5t-217 -156.5l-447 -107q-100 -24 -154 -111q-40 -65 -37 -137h-100zM0 0v100h100v-100h-100 z" />
<glyph unicode="@" horiz-adv-x="1500" d="M700 1100q-166 0 -283 -117t-117 -283t117 -283t283 -117t283 117t117 283t-117 283t-283 117zM1100 1148q-168 152 -400 152q-249 0 -424.5 -175.5t-175.5 -424.5t175.5 -424.5t424.5 -175.5q232 0 400 152v198q-21 -78 -46 -103q-147 -147 -354 -147t-353.5 146.5 t-146.5 353.5t146.5 353.5t353.5 146.5t354 -146q25 -26 46 -104v198zM1200 366q100 146 100 334t-100 334v-668zM1400 700q0 -290 -205 -495t-495 -205t-495 205t-205 495t205 495t495 205t495 -205t205 -495z" />
<glyph unicode="A" horiz-adv-x="1400" d="M653 1278l-334 -778h667zM276 400l-171 -400h-109l600 1400h113l600 -1400h-109l-171 400h-753z" />
<glyph unicode="B" d="M625 650h-525v-550h525q114 0 194.5 80.5t80.5 194.5t-80.5 194.5t-194.5 80.5zM625 750q114 0 194.5 80.5t80.5 194.5t-80.5 194.5t-194.5 80.5h-525v-550h525zM625 1400q155 0 265 -110t110 -265t-110 -265q-36 -36 -76 -60q40 -24 76 -60q110 -110 110 -265t-110 -265 t-265 -110h-625v1400h625z" />
<glyph unicode="C" horiz-adv-x="1300" d="M1125 1125l70 70q-205 205 -495 205t-495 -205t-205 -495t205 -495t495 -205t495 205l-70 71q-176 -176 -425 -176t-424.5 175.5t-175.5 424.5t175.5 424.5t424.5 175.5t425 -175z" />
<glyph unicode="D" horiz-adv-x="1300" d="M100 1300v-1200h400q249 0 424.5 175.5t175.5 424.5t-175.5 424.5t-424.5 175.5h-400zM0 0v1400h500q290 0 495 -205t205 -495t-205 -495t-495 -205h-500z" />
<glyph unicode="E" d="M1000 1400h-1000v-1400h1000v100h-900v550h700v100h-700v550h900v100z" />
<glyph unicode="F" d="M1000 1400h-1000v-1400h100v650h700v100h-700v550h900v100z" />
<glyph unicode="G" horiz-adv-x="1300" d="M1200 0h-100v124q-174 -124 -400 -124q-290 0 -495 205t-205 495t205 495t495 205t495 -205l-70 -70q-176 175 -425 175t-424.5 -175.5t-175.5 -424.5t175.5 -424.5t424.5 -175.5q232 0 400 152v398h-450v100h550v-750z" />
<glyph unicode="H" d="M900 650h-800v-650h-100v1400h100v-650h800v650h100v-1400h-100v650z" />
<glyph unicode="I" horiz-adv-x="200" d="M100 1400v-1400h-100v1400h100z" />
<glyph unicode="J" horiz-adv-x="949" d="M66 217q117 -117 283 -117t283 117t117 283v900h100v-900q0 -207 -146.5 -353.5t-353.5 -146.5t-353 147z" />
<glyph unicode="K" d="M100 570v-570h-100v1400h100v-696l755 696h145v-1l-624 -574l623 -825h-126l-571 756z" />
<glyph unicode="L" d="M0 1400v-1400h1000v100h-900v1300h-100z" />
<glyph unicode="M" horiz-adv-x="1500" d="M700 288l-600 953v-1241h-100v1400h119l581 -923l581 923h119v-1400h-100v1241z" />
<glyph unicode="N" d="M900 159v1241h100v-1400h-119l-781 1241v-1241h-100v1400h119z" />
<glyph unicode="O" horiz-adv-x="1500" d="M1195 1195q205 -205 205 -495t-205 -495t-495 -205t-495 205t-205 495t205 495t495 205t495 -205zM700 1300q-249 0 -424.5 -175.5t-175.5 -424.5t175.5 -424.5t424.5 -175.5t424.5 175.5t175.5 424.5t-175.5 424.5t-424.5 175.5z" />
<glyph unicode="P" d="M100 1300v-550h525q114 0 194.5 80.5t80.5 194.5t-80.5 194.5t-194.5 80.5h-525zM100 650v-650h-100v1400h625q155 0 265 -110t110 -265t-110 -265t-265 -110h-525z" />
<glyph unicode="Q" horiz-adv-x="1500" d="M1160 314q140 164 140 386q0 249 -175.5 424.5t-424.5 175.5t-424.5 -175.5t-175.5 -424.5t175.5 -424.5t424.5 -175.5q225 0 390 143l-199 198l71 71zM1161 173q-195 -173 -461 -173q-290 0 -495 205t-205 495t205 495t495 205t495 -205t205 -495q0 -263 -169 -456 l174 -173l-71 -71z" />
<glyph unicode="R" d="M510 650h-410v-650h-100v1400h625q155 0 265 -110t110 -265t-110 -265t-264 -110l382 -650h-116zM625 750q114 0 194.5 80.5t80.5 194.5t-80.5 194.5t-194.5 80.5h-525v-550h525z" />
<glyph unicode="S" d="M712 598l-447 107q-141 33 -217 156.5t-43 264.5q34 141 157 217t359.5 50t427.5 -156l-49 -85q-194 123 -398 143t-290 -35.5t-110 -156.5t31 -189q53 -87 153 -111l447 -107q141 -33 217 -156.5t43 -264.5q-34 -141 -157 -217t-359.5 -50t-427.5 156l49 85 q194 -123 398 -143t290 35.5t110 156.5t-30 189q-54 87 -154 111z" />
<glyph unicode="T" d="M1000 1400h-1000l1 -100h449v-1300h100v1300h450v100z" />
<glyph unicode="U" d="M0 500v900h100v-900q0 -166 117 -283t283 -117t283 117t117 283v900h100v-900q0 -207 -146.5 -353.5t-353.5 -146.5t-353.5 146.5t-146.5 353.5z" />
<glyph unicode="V" horiz-adv-x="1400" d="M1200 1400h109l-600 -1400h-113l-600 1400h109l548 -1278z" />
<glyph unicode="W" horiz-adv-x="2150" d="M1023 987l177 413h109l-231 -540l316 -738l547 1278h109l-600 -1400h-113l-314 733l-314 -733h-113l-600 1400h109l548 -1278l316 737l-232 541h109z" />
<glyph unicode="X" d="M441 700l-440 700h118l381 -606l381 606h118l-440 -700l440 -700h-118l-381 606l-381 -606h-118z" />
<glyph unicode="Y" d="M550 686v-686h-100v686l-9 14l-440 700h118l381 -606l381 606h118l-440 -700z" />
<glyph unicode="Z" d="M873 1300h-873v100h1000v-100h-4l-869 -1200h873v-100h-1000v100h4z" />
<glyph unicode="[" horiz-adv-x="450" d="M100 1550h250v100h-350v-1900h350v100h-250v1700z" />
<glyph unicode="\" horiz-adv-x="800" d="M600 -250l-600 1900h100l600 -1900h-100z" />
<glyph unicode="]" horiz-adv-x="450" d="M250 -150h-250v-100h350v1900h-350v-100h250v-1700z" />
<glyph unicode="^" horiz-adv-x="450" d="M13 1150l107 250h113l107 -250h-108l-55 128l-55 -128h-109z" />
<glyph unicode="_" d="M0 0h1000v100h-1000v-100z" />
<glyph unicode="`" horiz-adv-x="200" d="M49 1140l93 37l-91 233l-93 -37z" />
<glyph unicode="a" d="M500 900q-166 0 -283 -117t-117 -283t117 -283t283 -117t283 117t117 283t-117 283t-283 117zM900 250q-21 -78 -46 -103q-147 -147 -354 -147t-353.5 146.5t-146.5 353.5t146.5 353.5t353.5 146.5t354 -146q25 -26 46 -104v250h100v-1000h-100v250z" />
<glyph unicode="b" d="M217 783q-117 -117 -117 -283t117 -283t283 -117t283 117t117 283t-117 283t-283 117t-283 -117zM100 0h-100v1400h100v-650q21 78 47 104q146 146 353 146t353.5 -146.5t146.5 -353.5t-146.5 -353.5t-353.5 -146.5t-353 147q-26 25 -47 103v-250z" />
<glyph unicode="c" horiz-adv-x="950" d="M783 783l71 71q-147 146 -354 146t-354 -146q-146 -147 -146 -354t146 -354q147 -146 354 -146t354 146l-71 71q-118 -117 -283 -117t-283 117q-117 118 -117 283t117 283q118 117 283 117t283 -117z" />
<glyph unicode="d" d="M500 900q-166 0 -283 -117t-117 -283t117 -283t283 -117t283 117t117 283t-117 283t-283 117zM900 250q-21 -78 -46 -103q-147 -147 -354 -147t-353.5 146.5t-146.5 353.5t146.5 353.5t353.5 146.5t354 -146q25 -26 46 -104v650h100v-1400h-100v250z" />
<glyph unicode="e" d="M897 550q-15 134 -114 233q-117 117 -283 117t-283 -117q-99 -99 -114 -233h794zM146 854q137 136 19 18q141 128 335 128q207 0 354 -146q146 -147 146 -354v-50h-897q15 -134 114 -233q117 -117 282.5 -117t283.5 117l71 -71q-147 -146 -354 -146t-354 146 q-146 147 -146 354q0 194 128 335q-118 -118 18 19z" />
<glyph unicode="f" horiz-adv-x="500" d="M0 900v100h150v150q0 104 73 177t177 73v-100q-62 0 -106 -44t-44 -106v-150h150v-100h-150v-900h-100v900h-150z" />
<glyph unicode="g" d="M900 500q0 166 -117 283t-283 117t-283 -117t-117 -283t117 -283t283 -117t283 117t117 283zM900 100v150q-21 -78 -46 -103q-147 -147 -354 -147t-353.5 146.5t-146.5 353.5t146.5 353.5t353.5 146.5t354 -146q25 -26 46 -104v250h100v-900q0 -207 -146 -353 q-147 -147 -354 -147t-354 147l71 70q117 -117 283 -117t283 117t117 283z" />
<glyph unicode="h" horiz-adv-x="900" d="M100 865q8 9 17 18q117 117 283 117t283 -117t117 -283v-600h-100v600q0 124 -88 212t-212 88t-212 -88t-88 -212v-600h-100v1400h100v-535z" />
<glyph unicode="i" horiz-adv-x="200" d="M100 1000v-1000h-100v1000h100zM0 1150v100h100v-100h-100z" />
<glyph unicode="j" horiz-adv-x="200" d="M4 100v900h100v-900q0 -207 -146 -353l-71 70q117 117 117 283zM104 1250v-100h-100v100h100z" />
<glyph unicode="k" horiz-adv-x="900" d="M784 1000l-408 -375l472 -625h-126l-420 556l-202 -186v-370h-100v1400h100v-896l538 496h146z" />
<glyph unicode="l" horiz-adv-x="200" d="M100 0h-100v1400h100v-1400z" />
<glyph unicode="m" horiz-adv-x="1600" d="M700 600q0 124 -88 212t-212 88t-212 -88t-88 -212v-600h-100v1000h100v-135q8 9 17 18q117 117 283 117t283 -117q41 -41 67 -87q26 46 67 87q117 117 283 117t283 -117t117 -283v-600h-100v600q0 124 -88 212t-212 88t-212 -88t-88 -212v-600h-100v600z" />
<glyph unicode="n" horiz-adv-x="900" d="M0 1000h100v-135q8 9 17 18q117 117 283 117t283 -117t117 -283v-600h-100v600q0 124 -88 212t-212 88t-212 -88t-88 -212v-600h-100v1000z" />
<glyph unicode="o" d="M500 0q-207 0 -353.5 146.5t-146.5 353.5t146.5 353.5t353.5 146.5t353.5 -146.5t146.5 -353.5t-146.5 -353.5t-353.5 -146.5zM500 900q-166 0 -283 -117t-117 -283t117 -283t283 -117t283 117t117 283t-117 283t-283 117z" />
<glyph unicode="p" d="M500 100q166 0 283 117t117 283t-117 283t-283 117t-283 -117t-117 -283t117 -283t283 -117zM100 750q21 78 47 104q146 146 353 146t353.5 -146.5t146.5 -353.5t-146.5 -353.5t-353.5 -146.5t-353 147q-26 25 -47 103v-650h-100v1400h100v-250z" />
<glyph unicode="q" d="M783 217q117 117 117 283t-117 283t-283 117t-283 -117t-117 -283t117 -283t283 -117t283 117zM900 1000h100v-1400h-100v650q-21 -78 -46 -103q-147 -147 -354 -147t-353.5 146.5t-146.5 353.5t146.5 353.5t353.5 146.5t354 -146q25 -26 46 -104v250z" />
<glyph unicode="r" horiz-adv-x="600" d="M487 888q-41 12 -87 12q-124 0 -212 -88t-88 -212v-600h-100v1000h100v-150q8 24 17 33q117 117 283 117q56 0 106 -13z" />
<glyph unicode="s" horiz-adv-x="827" d="M524 429l-320 77q-107 24 -164.5 117t-32.5 200q26 106 118 163.5t266 38t324 -121.5l-48 -82q-148 94 -291 108t-200.5 -23.5t-73.5 -105.5q-17 -68 20 -126q36 -58 103 -75l320 -76q107 -25 164.5 -118t32.5 -199q-26 -107 -118 -164t-266 -38t-324 121l48 82 q148 -94 291 -108t201 23.5t73 105.5q17 68 -20 126q-36 58 -103 75z" />
<glyph unicode="t" horiz-adv-x="500" d="M150 1000v400h100v-400h150v-100h-150v-650q0 -62 44 -106t106 -44v-100q-104 0 -177 73t-73 177v650h-150v100h150z" />
<glyph unicode="u" horiz-adv-x="900" d="M800 0h-100v135q-8 -9 -17 -18q-117 -117 -283 -117t-283 117t-117 283v600h100v-600q0 -124 88 -212t212 -88t212 88t88 212v600h100v-1000z" />
<glyph unicode="v" d="M110 1000l376 -878l376 878h109l-429 -1000h-113l-429 1000h110z" />
<glyph unicode="w" horiz-adv-x="1950" d="M916 871l-374 -871h-113l-429 1000h110l376 -878l375 876l-1 2h111l-1 -1l376 -877l376 878h109l-429 -1000h-113z" />
<glyph unicode="x" horiz-adv-x="850" d="M746 1000l-314 -500l314 -500h-118l-255 406l-255 -406h-118l314 500l-314 500h118l255 -406l255 406h118z" />
<glyph unicode="y" d="M429 0l-429 1000h110l376 -878l376 878h109l-603 -1400h-108z" />
<glyph unicode="z" horiz-adv-x="800" d="M573 900h-573v100h700v-100h-4l-569 -800h573v-100h-700v100h4z" />
<glyph unicode="{" horiz-adv-x="550" d="M100 750q9 900 350 900v-100q-250 0 -250 -850t250 -850v-100q-341 0 -350 900h-100v100h100z" />
<glyph unicode="|" horiz-adv-x="200" d="M100 1650v-1900h-100v1900h100z" />
<glyph unicode="}" horiz-adv-x="550" d="M450 750v-100h-100q-9 -900 -350 -900v100q250 0 250 850t-250 850v100q341 0 350 -900h100z" />
<glyph unicode="~" horiz-adv-x="600" d="M250 650q100 -50 250 0v100q-150 -50 -250 0t-250 0v-100q150 50 250 0z" />
<glyph unicode="&#xa1;" horiz-adv-x="200" d="M100 674v-1050h-100v1050h100zM0 924v100h100v-100h-100z" />
<glyph unicode="&#xa2;" d="M1000 1500h-100l-159 -503q-30 3 -61 3q-207 0 -354 -146q-146 -147 -146 -354t146 -354q55 -55 118 -89l-144 -457h100l133 421q69 -21 147 -21q207 0 354 146l-71 71q-118 -117 -283 -117q-62 0 -117 16l242 765q87 -28 158 -98l71 71q-89 88 -199 123zM475 155 q-41 25 -78 62q-117 118 -117 283t117 283q118 117 283 117q15 0 30 -1z" />
<glyph unicode="&#xa3;" horiz-adv-x="1099" d="M99 800v100q0 207 146.5 353.5t353.5 146.5t353 -147l-70 -70q-117 117 -283 117t-283 -117t-117 -283v-100h600v-100h-600v-100h600v-100h-600v-400h800v-100h-1000v100h100v400h-100v100h100v100h-100v100h100z" />
<glyph unicode="&#xa5;" d="M450 500v186l-9 14l-440 700h118l381 -606l381 606h118l-440 -700l-9 -14v-186h350v-100h-350v-100h350v-100h-350v-200h-100v200h-350v100h350v100h-350v100h350z" />
<glyph unicode="&#xa6;" horiz-adv-x="200" d="M100 1021.49v-816.986h-100v816.986h100zM100 579.488v-816.986h-100v816.986h100z" />
<glyph unicode="&#xa8;" horiz-adv-x="350" d="M0 1300h100v100h-100v-100zM150 1300h100v100h-100v-100z" />
<glyph unicode="&#xa9;" horiz-adv-x="1500" d="M1195 1195q205 -205 205 -495t-205 -495t-495 -205t-495 205t-205 495t205 495t495 205t495 -205zM700 1300q-249 0 -424.5 -175.5t-175.5 -424.5t175.5 -424.5t424.5 -175.5t424.5 175.5t175.5 424.5t-175.5 424.5t-424.5 175.5zM983 983l71 71q-147 146 -354 146 t-354 -146q-146 -147 -146 -354t146 -354q147 -146 354 -146t354 146l-71 71q-118 -117 -283 -117t-283 117q-117 118 -117 283t117 283q118 117 283 117t283 -117z" />
<glyph unicode="&#xab;" horiz-adv-x="1039" d="M499 861l-378 -162l378 -162v-109l-500 215v113l500 214v-109zM939 861l-378 -162l378 -162v-109l-500 215v113l500 214v-109z" />
<glyph unicode="&#xae;" horiz-adv-x="1500" d="M826 736q82 0 139.5 57.5t57.5 138.5q0 82 -57.5 139.5t-139.5 57.5h-375v-393h375zM1080 235q23 19 45 41q175 175 175 424t-175.5 424.5t-424.5 175.5t-424.5 -175.5t-175.5 -424.5t175.5 -424.5t424.5 -175.5q188 0 334 100h-17l-273 464h-293v-464h-71v1000h446 q111 0 189.5 -78.5t78.5 -189.5t-78 -189q-79 -79 -189 -79zM1400 700q0 -290 -205 -495t-495 -205t-495 205t-205 495t205 495t495 205t495 -205t205 -495z" />
<glyph unicode="&#xaf;" horiz-adv-x="600" d="M0 1274h500v100h-500v-100z" />
<glyph unicode="&#xb0;" horiz-adv-x="400" d="M256 1356q44 -44 44 -106t-44 -106t-106 -44t-106 44t-44 106t44 106t106 44t106 -44zM150 1300q-21 0 -35.5 -14.5t-14.5 -35.5t14.5 -35.5t35.5 -14.5t35.5 14.5t14.5 35.5t-14.5 35.5t-35.5 14.5z" />
<glyph unicode="&#xb1;" horiz-adv-x="600" d="M200 450v200h-200v100h200v200h100v-200h200v-100h-200v-200h200v-100h-500v100h200z" />
<glyph unicode="&#xb4;" horiz-adv-x="200" d="M142 1373l-93 37l-91 -233l93 -37z" />
<glyph unicode="&#xb5;" horiz-adv-x="900" d="M700 135q-8 -9 -17 -18q-117 -117 -283 -117t-283 117q-9 9 -17 18v-535h-100v1400h100v-600q0 -124 88 -212t212 -88t212 88t88 212v600h100v-1000h-100v135z" />
<glyph unicode="&#xb7;" horiz-adv-x="508" d="M0 574h84.998v84.998h-84.998v-84.998z" />
<glyph unicode="&#xb8;" horiz-adv-x="300" d="M0 100v-250q100 0 100 -25v-50t-100 -25v-100q200 0 200 150t-100 150v150h-100z" />
<glyph unicode="&#xba;" horiz-adv-x="400" d="M256 1356q44 -44 44 -106t-44 -106t-106 -44t-106 44t-44 106t44 106t106 44t106 -44zM150 1300q-21 0 -35.5 -14.5t-14.5 -35.5t14.5 -35.5t35.5 -14.5t35.5 14.5t14.5 35.5t-14.5 35.5t-35.5 14.5z" />
<glyph unicode="&#xbb;" horiz-adv-x="1039" d="M-1 537l378 163l-378 161v109l500 -214v-113l-500 -215v109zM439 537l378 163l-378 161v109l500 -214v-113l-500 -215v109z" />
<glyph unicode="&#xbf;" d="M1024 674q2 -99 -53 -190q-76 -123 -217 -156l-447 -107q-100 -24 -153 -111q-55 -88 -31 -189t110 -156.5t290 -35.5t398 143l49 -85q-191 -130 -427.5 -156t-359.5 50t-157 217q-33 141 43 264.5t217 156.5l447 107q100 24 154 111q40 65 37 137h100zM1019 1024v-100 h-100v100h100z" />
<glyph unicode="&#xc0;" horiz-adv-x="1400" d="M653 1278l-334 -778h667zM276 400l-171 -400h-109l600 1400h113l600 -1400h-109l-171 400h-753zM621 1550l93 37l-91 233l-93 -37z" />
<glyph unicode="&#xc1;" horiz-adv-x="1400" d="M653 1278l-334 -778h667zM276 400l-171 -400h-109l600 1400h113l600 -1400h-109l-171 400h-753zM775 1783l-93 37l-91 -233l93 -37z" />
<glyph unicode="&#xc2;" horiz-adv-x="1400" d="M653 1278l-334 -778h667zM276 400l-171 -400h-109l600 1400h113l600 -1400h-109l-171 400h-753zM489 1560l107 250h113l107 -250h-108l-55 128l-55 -128h-109z" />
<glyph unicode="&#xc3;" horiz-adv-x="1400" d="M653 1278l-334 -778h667zM276 400l-171 -400h-109l600 1400h113l600 -1400h-109l-171 400h-753zM653 1685q100 -50 250 0v100q-150 -50 -250 0t-250 0v-100q150 50 250 0z" />
<glyph unicode="&#xc4;" horiz-adv-x="1400" d="M653 1278l-334 -778h667zM276 400l-171 -400h-109l600 1400h113l600 -1400h-109l-171 400h-753zM528 1710h100v100h-100v-100zM678 1710h100v100h-100v-100z" />
<glyph unicode="&#xc5;" horiz-adv-x="1400" d="M653 1278l-334 -778h667zM276 400l-171 -400h-109l600 1400h113l600 -1400h-109l-171 400h-753zM759 1766q44 -44 44 -106t-44 -106t-106 -44t-106 44t-44 106t44 106t106 44t106 -44zM653 1710q-21 0 -35.5 -14.5t-14.5 -35.5t14.5 -35.5t35.5 -14.5t35.5 14.5 t14.5 35.5t-14.5 35.5t-35.5 14.5z" />
<glyph unicode="&#xc6;" horiz-adv-x="1900" d="M900 400v-300h257l-128 300h-129zM922 650h-22v-150h86zM800 500v435l-147 343l-334 -778h481zM988 750h612v-100h-570l236 -550h534v-100h-1000v400h-524l-171 -400h-109l600 1400h113l91 -212v212h1000v-100h-900v-346z" />
<glyph unicode="&#xc7;" horiz-adv-x="1300" d="M498 -150q100 0 100 -25v-50t-100 -25v-100q200 0 200 150t-100 150v57q50 -7 102 -7q290 0 495 205l-70 71q-176 -176 -425 -176t-424.5 175.5t-175.5 424.5t175.5 424.5t424.5 175.5t425 -175l70 70q-205 205 -495 205t-495 -205t-205 -495t205 -495q130 -130 293 -177 v-178z" />
<glyph unicode="&#xc8;" d="M1000 1400h-1000v-1400h1000v100h-900v550h700v100h-700v550h900v100zM468 1550l93 37l-91 233l-93 -37z" />
<glyph unicode="&#xc9;" d="M1000 1400h-1000v-1400h1000v100h-900v550h700v100h-700v550h900v100zM623 1783l-93 37l-91 -233l93 -37z" />
<glyph unicode="&#xca;" d="M1000 1400h-1000v-1400h1000v100h-900v550h700v100h-700v550h900v100zM337 1560l107 250h113l107 -250h-108l-55 128l-55 -128h-109z" />
<glyph unicode="&#xcb;" d="M1000 1400h-1000v-1400h1000v100h-900v550h700v100h-700v550h900v100zM375 1710h100v100h-100v-100zM525 1710h100v100h-100v-100z" />
<glyph unicode="&#xcc;" horiz-adv-x="200" d="M100 1400v-1400h-100v1400h100zM18 1550l93 37l-91 233l-93 -37z" />
<glyph unicode="&#xcd;" horiz-adv-x="200" d="M100 1400v-1400h-100v1400h100zM173 1783l-93 37l-91 -233l93 -37z" />
<glyph unicode="&#xce;" horiz-adv-x="200" d="M100 1400v-1400h-100v1400h100zM-113 1560l107 250h113l107 -250h-108l-55 128l-55 -128h-109z" />
<glyph unicode="&#xcf;" horiz-adv-x="200" d="M100 1400v-1400h-100v1400h100zM-75 1710h100v100h-100v-100zM75 1710h100v100h-100v-100z" />
<glyph unicode="&#xd0;" horiz-adv-x="1500" d="M300 650v-550h400q249 0 424.5 175.5t175.5 424.5t-175.5 424.5t-424.5 175.5h-400v-550h700v-100h-700zM200 650h-200v100h200v650h500q290 0 495 -205t205 -495t-205 -495t-495 -205h-500v650z" />
<glyph unicode="&#xd1;" d="M900 159v1241h100v-1400h-119l-781 1241v-1241h-100v1400h119zM500 1685q100 -50 250 0v100q-150 -50 -250 0t-250 0v-100q150 50 250 0z" />
<glyph unicode="&#xd2;" horiz-adv-x="1500" d="M1195 1195q205 -205 205 -495t-205 -495t-495 -205t-495 205t-205 495t205 495t495 205t495 -205zM700 1300q-249 0 -424.5 -175.5t-175.5 -424.5t175.5 -424.5t424.5 -175.5t424.5 175.5t175.5 424.5t-175.5 424.5t-424.5 175.5zM668 1550l93 37l-91 233l-93 -37z" />
<glyph unicode="&#xd3;" horiz-adv-x="1500" d="M1195 1195q205 -205 205 -495t-205 -495t-495 -205t-495 205t-205 495t205 495t495 205t495 -205zM700 1300q-249 0 -424.5 -175.5t-175.5 -424.5t175.5 -424.5t424.5 -175.5t424.5 175.5t175.5 424.5t-175.5 424.5t-424.5 175.5zM823 1783l-93 37l-91 -233l93 -37z" />
<glyph unicode="&#xd4;" horiz-adv-x="1500" d="M1195 1195q205 -205 205 -495t-205 -495t-495 -205t-495 205t-205 495t205 495t495 205t495 -205zM700 1300q-249 0 -424.5 -175.5t-175.5 -424.5t175.5 -424.5t424.5 -175.5t424.5 175.5t175.5 424.5t-175.5 424.5t-424.5 175.5zM537 1560l107 250h113l107 -250h-108 l-55 128l-55 -128h-109z" />
<glyph unicode="&#xd5;" horiz-adv-x="1500" d="M1195 1195q205 -205 205 -495t-205 -495t-495 -205t-495 205t-205 495t205 495t495 205t495 -205zM700 1300q-249 0 -424.5 -175.5t-175.5 -424.5t175.5 -424.5t424.5 -175.5t424.5 175.5t175.5 424.5t-175.5 424.5t-424.5 175.5zM700 1685q100 -50 250 0v100 q-150 -50 -250 0t-250 0v-100q150 50 250 0z" />
<glyph unicode="&#xd6;" horiz-adv-x="1500" d="M1195 1195q205 -205 205 -495t-205 -495t-495 -205t-495 205t-205 495t205 495t495 205t495 -205zM700 1300q-249 0 -424.5 -175.5t-175.5 -424.5t175.5 -424.5t424.5 -175.5t424.5 175.5t175.5 424.5t-175.5 424.5t-424.5 175.5zM575 1710h100v100h-100v-100zM725 1710 h100v100h-100v-100z" />
<glyph unicode="&#xd7;" horiz-adv-x="600" d="M391 488l71 71l-141 141l141 141l-71 71l-141 -141l-141 141l-71 -71l141 -141l-141 -141l71 -71l141 141z" />
<glyph unicode="&#xd8;" horiz-adv-x="1500" d="M565 114q65 -14 135 -14q249 0 424.5 175.5t175.5 424.5t-175 425q-90 89 -199 133zM474 142l361 1144q-65 14 -135 14q-249 0 -424.5 -175.5t-175.5 -424.5t176 -424q89 -90 198 -134zM956 1354q131 -51 239 -159q205 -205 205 -495t-205 -495t-495 -205q-86 0 -165 18 l-85 -268h-100l94 296q-131 51 -239 159q-205 205 -205 495t205 495t495 205q86 0 165 -18l85 268h100z" />
<glyph unicode="&#xd9;" d="M0 500v900h100v-900q0 -166 117 -283t283 -117t283 117t117 283v900h100v-900q0 -207 -146.5 -353.5t-353.5 -146.5t-353.5 146.5t-146.5 353.5zM468 1550l93 37l-91 233l-93 -37z" />
<glyph unicode="&#xda;" d="M0 500v900h100v-900q0 -166 117 -283t283 -117t283 117t117 283v900h100v-900q0 -207 -146.5 -353.5t-353.5 -146.5t-353.5 146.5t-146.5 353.5zM623 1783l-93 37l-91 -233l93 -37z" />
<glyph unicode="&#xdb;" d="M0 500v900h100v-900q0 -166 117 -283t283 -117t283 117t117 283v900h100v-900q0 -207 -146.5 -353.5t-353.5 -146.5t-353.5 146.5t-146.5 353.5zM337 1560l107 250h113l107 -250h-108l-55 128l-55 -128h-109z" />
<glyph unicode="&#xdc;" d="M0 500v900h100v-900q0 -166 117 -283t283 -117t283 117t117 283v900h100v-900q0 -207 -146.5 -353.5t-353.5 -146.5t-353.5 146.5t-146.5 353.5zM375 1710h100v100h-100v-100zM525 1710h100v100h-100v-100z" />
<glyph unicode="&#xdd;" d="M550 686v-686h-100v686l-9 14l-440 700h118l381 -606l381 606h118l-440 -700zM623 1783l-93 37l-91 -233l93 -37z" />
<glyph unicode="&#xde;" d="M100 900h525q155 0 265 -110t110 -265t-110 -265t-265 -110h-525v-450h-100v1600h100v-400zM100 250h525q114 0 194.5 80.5t80.5 194.5t-80.5 194.5t-194.5 80.5h-525v-550z" />
<glyph unicode="&#xdf;" horiz-adv-x="1150" d="M100 151v-151h-100v1237q191 130 427.5 156t398 -52t207 -224t-30.5 -269.5t-217 -156.5l-17 -4h-1l17 -4q141 -33 217 -156.5t43 -264.5q-34 -141 -157 -217t-359.5 -50t-427.5 156zM100 151l49 85q194 -123 398 -143t290 35.5t110 156.5t-30 189q-54 87 -154 111 q-217 52 -512 52v100q296 0 513 52q100 24 154 111q54 88 18 194t-160.5 163.5t-328.5 37.5q-177 -17 -347 -113v-1031z" />
<glyph unicode="&#xe0;" d="M500 900q-166 0 -283 -117t-117 -283t117 -283t283 -117t283 117t117 283t-117 283t-283 117zM900 250q-21 -78 -46 -103q-147 -147 -354 -147t-353.5 146.5t-146.5 353.5t146.5 353.5t353.5 146.5t354 -146q25 -26 46 -104v250h100v-1000h-100v250zM468 1140l93 37 l-91 233l-93 -37z" />
<glyph unicode="&#xe1;" d="M500 900q-166 0 -283 -117t-117 -283t117 -283t283 -117t283 117t117 283t-117 283t-283 117zM900 250q-21 -78 -46 -103q-147 -147 -354 -147t-353.5 146.5t-146.5 353.5t146.5 353.5t353.5 146.5t354 -146q25 -26 46 -104v250h100v-1000h-100v250zM623 1373l-93 37 l-91 -233l93 -37z" />
<glyph unicode="&#xe2;" d="M500 900q-166 0 -283 -117t-117 -283t117 -283t283 -117t283 117t117 283t-117 283t-283 117zM900 250q-21 -78 -46 -103q-147 -147 -354 -147t-353.5 146.5t-146.5 353.5t146.5 353.5t353.5 146.5t354 -146q25 -26 46 -104v250h100v-1000h-100v250zM337 1150l107 250 h113l107 -250h-108l-55 128l-55 -128h-109z" />
<glyph unicode="&#xe3;" d="M500 900q-166 0 -283 -117t-117 -283t117 -283t283 -117t283 117t117 283t-117 283t-283 117zM900 250q-21 -78 -46 -103q-147 -147 -354 -147t-353.5 146.5t-146.5 353.5t146.5 353.5t353.5 146.5t354 -146q25 -26 46 -104v250h100v-1000h-100v250zM500 1275 q100 -50 250 0v100q-150 -50 -250 0t-250 0v-100q150 50 250 0z" />
<glyph unicode="&#xe4;" d="M500 900q-166 0 -283 -117t-117 -283t117 -283t283 -117t283 117t117 283t-117 283t-283 117zM900 250q-21 -78 -46 -103q-147 -147 -354 -147t-353.5 146.5t-146.5 353.5t146.5 353.5t353.5 146.5t354 -146q25 -26 46 -104v250h100v-1000h-100v250zM375 1300h100v100 h-100v-100zM525 1300h100v100h-100v-100z" />
<glyph unicode="&#xe5;" d="M500 900q-166 0 -283 -117t-117 -283t117 -283t283 -117t283 117t117 283t-117 283t-283 117zM900 250q-21 -78 -46 -103q-147 -147 -354 -147t-353.5 146.5t-146.5 353.5t146.5 353.5t353.5 146.5t354 -146q25 -26 46 -104v250h100v-1000h-100v250zM606 1356 q44 -44 44 -106t-44 -106t-106 -44t-106 44t-44 106t44 106t106 44t106 -44zM500 1300q-21 0 -35.5 -14.5t-14.5 -35.5t14.5 -35.5t35.5 -14.5t35.5 14.5t14.5 35.5t-14.5 35.5t-35.5 14.5z" />
<glyph unicode="&#xe6;" horiz-adv-x="2000" d="M500 900q-166 0 -283 -117t-117 -283t117 -283t283 -117t283 117t117 283t-117 283t-283 117zM1797 550q-15 134 -114 233q-117 117 -283 117t-283 -117q-99 -99 -114 -233h794zM1000 198v-198h-100v250q-21 -78 -46 -103q-147 -147 -354 -147t-353.5 146.5t-146.5 353.5 t146.5 353.5t353.5 146.5t354 -146q25 -26 46 -104v250h100v-192l46 46q137 136 19 18q141 128 335 128q207 0 354 -146q146 -147 146 -354v-50h-897q15 -134 114 -233q117 -117 282.5 -117t283.5 117l71 -71q-147 -146 -354 -146t-354 146q-25 25 -46 52zM1000 807v-5 q13 17 28 33z" />
<glyph unicode="&#xe7;" horiz-adv-x="950" d="M327 -150q100 0 100 -25v-50t-100 -25v-100q200 0 200 150t-100 150v55q36 -5 73 -5q207 0 354 146l-71 71q-118 -117 -283 -117t-283 117q-117 118 -117 283t117 283q118 117 283 117t283 -117l71 71q-147 146 -354 146t-354 -146q-146 -147 -146 -354t146 -354 q81 -81 181 -117v-179z" />
<glyph unicode="&#xe8;" d="M897 550q-15 134 -114 233q-117 117 -283 117t-283 -117q-99 -99 -114 -233h794zM146 854q137 136 19 18q141 128 335 128q207 0 354 -146q146 -147 146 -354v-50h-897q15 -134 114 -233q117 -117 282.5 -117t283.5 117l71 -71q-147 -146 -354 -146t-354 146 q-146 147 -146 354q0 194 128 335q-118 -118 18 19zM468 1140l93 37l-91 233l-93 -37z" />
<glyph unicode="&#xe9;" d="M897 550q-15 134 -114 233q-117 117 -283 117t-283 -117q-99 -99 -114 -233h794zM146 854q137 136 19 18q141 128 335 128q207 0 354 -146q146 -147 146 -354v-50h-897q15 -134 114 -233q117 -117 282.5 -117t283.5 117l71 -71q-147 -146 -354 -146t-354 146 q-146 147 -146 354q0 194 128 335q-118 -118 18 19zM623 1373l-93 37l-91 -233l93 -37z" />
<glyph unicode="&#xea;" d="M897 550q-15 134 -114 233q-117 117 -283 117t-283 -117q-99 -99 -114 -233h794zM146 854q137 136 19 18q141 128 335 128q207 0 354 -146q146 -147 146 -354v-50h-897q15 -134 114 -233q117 -117 282.5 -117t283.5 117l71 -71q-147 -146 -354 -146t-354 146 q-146 147 -146 354q0 194 128 335q-118 -118 18 19zM337 1150l107 250h113l107 -250h-108l-55 128l-55 -128h-109z" />
<glyph unicode="&#xeb;" d="M897 550q-15 134 -114 233q-117 117 -283 117t-283 -117q-99 -99 -114 -233h794zM146 854q137 136 19 18q141 128 335 128q207 0 354 -146q146 -147 146 -354v-50h-897q15 -134 114 -233q117 -117 282.5 -117t283.5 117l71 -71q-147 -146 -354 -146t-354 146 q-146 147 -146 354q0 194 128 335q-118 -118 18 19zM375 1300h100v100h-100v-100zM525 1300h100v100h-100v-100z" />
<glyph unicode="&#xec;" horiz-adv-x="200" d="M100 1000v-1000h-100v1000h100zM18 1140l93 37l-91 233l-93 -37z" />
<glyph unicode="&#xed;" horiz-adv-x="200" d="M100 1000v-1000h-100v1000h100zM173 1373l-93 37l-91 -233l93 -37z" />
<glyph unicode="&#xee;" horiz-adv-x="200" d="M100 1000v-1000h-100v1000h100zM-113 1150l107 250h113l107 -250h-108l-55 128l-55 -128h-109z" />
<glyph unicode="&#xef;" horiz-adv-x="200" d="M100 1000v-1000h-100v1000h100zM-75 1300h100v100h-100v-100zM75 1300h100v100h-100v-100z" />
<glyph unicode="&#xf0;" d="M500 900q-166 0 -283 -117t-117 -283t117 -283t283 -117t283 117t117 283t-117 283t-283 117zM641 1166l245 -348q29 -34 51 -72l6 -9h-1q58 -107 58 -237q0 -207 -146.5 -353.5t-353.5 -146.5t-353.5 146.5t-146.5 353.5t146.5 353.5t353.5 146.5q83 0 156 -23l-111 158 l-164 -53l-31 95l134 43l-107 153l93 37l111 -158l150 48l31 -95z" />
<glyph unicode="&#xf1;" horiz-adv-x="900" d="M0 1000h100v-135q8 9 17 18q117 117 283 117t283 -117t117 -283v-600h-100v600q0 124 -88 212t-212 88t-212 -88t-88 -212v-600h-100v1000zM400 1275q100 -50 250 0v100q-150 -50 -250 0t-250 0v-100q150 50 250 0z" />
<glyph unicode="&#xf2;" d="M500 0q-207 0 -353.5 146.5t-146.5 353.5t146.5 353.5t353.5 146.5t353.5 -146.5t146.5 -353.5t-146.5 -353.5t-353.5 -146.5zM500 900q-166 0 -283 -117t-117 -283t117 -283t283 -117t283 117t117 283t-117 283t-283 117zM468 1140l93 37l-91 233l-93 -37z" />
<glyph unicode="&#xf3;" d="M500 0q-207 0 -353.5 146.5t-146.5 353.5t146.5 353.5t353.5 146.5t353.5 -146.5t146.5 -353.5t-146.5 -353.5t-353.5 -146.5zM500 900q-166 0 -283 -117t-117 -283t117 -283t283 -117t283 117t117 283t-117 283t-283 117zM623 1373l-93 37l-91 -233l93 -37z" />
<glyph unicode="&#xf4;" d="M500 0q-207 0 -353.5 146.5t-146.5 353.5t146.5 353.5t353.5 146.5t353.5 -146.5t146.5 -353.5t-146.5 -353.5t-353.5 -146.5zM500 900q-166 0 -283 -117t-117 -283t117 -283t283 -117t283 117t117 283t-117 283t-283 117zM337 1150l107 250h113l107 -250h-108l-55 128 l-55 -128h-109z" />
<glyph unicode="&#xf5;" d="M500 0q-207 0 -353.5 146.5t-146.5 353.5t146.5 353.5t353.5 146.5t353.5 -146.5t146.5 -353.5t-146.5 -353.5t-353.5 -146.5zM500 900q-166 0 -283 -117t-117 -283t117 -283t283 -117t283 117t117 283t-117 283t-283 117zM500 1275q100 -50 250 0v100q-150 -50 -250 0 t-250 0v-100q150 50 250 0z" />
<glyph unicode="&#xf6;" d="M500 0q-207 0 -353.5 146.5t-146.5 353.5t146.5 353.5t353.5 146.5t353.5 -146.5t146.5 -353.5t-146.5 -353.5t-353.5 -146.5zM500 900q-166 0 -283 -117t-117 -283t117 -283t283 -117t283 117t117 283t-117 283t-283 117zM375 1300h100v100h-100v-100zM525 1300h100v100 h-100v-100z" />
<glyph unicode="&#xf7;" horiz-adv-x="600" d="M0 650v100h500v-100h-500zM200 850v100h100v-100h-100zM300 550v-100h-100v100h100z" />
<glyph unicode="&#xf8;" d="M411 109q42 -9 89 -9q166 0 283 117t117 283t-117 283q-59 59 -131 89zM321 141l238 755q-29 4 -59 4q-166 0 -283 -117t-117 -283t117 -283q48 -48 104 -76zM682 967q94 -36 172 -113q146 -147 146 -354t-146.5 -353.5t-353.5 -146.5q-62 0 -119 13l-131 -413h-100 l140 444q-78 37 -143 103q-147 146 -147 353t146.5 353.5t353.5 146.5q46 0 90 -7l160 507h100z" />
<glyph unicode="&#xf9;" horiz-adv-x="900" d="M800 0h-100v135q-8 -9 -17 -18q-117 -117 -283 -117t-283 117t-117 283v600h100v-600q0 -124 88 -212t212 -88t212 88t88 212v600h100v-1000zM368 1140l93 37l-91 233l-93 -37z" />
<glyph unicode="&#xfa;" horiz-adv-x="900" d="M800 0h-100v135q-8 -9 -17 -18q-117 -117 -283 -117t-283 117t-117 283v600h100v-600q0 -124 88 -212t212 -88t212 88t88 212v600h100v-1000zM523 1373l-93 37l-91 -233l93 -37z" />
<glyph unicode="&#xfb;" horiz-adv-x="900" d="M800 0h-100v135q-8 -9 -17 -18q-117 -117 -283 -117t-283 117t-117 283v600h100v-600q0 -124 88 -212t212 -88t212 88t88 212v600h100v-1000zM237 1150l107 250h113l107 -250h-108l-55 128l-55 -128h-109z" />
<glyph unicode="&#xfc;" horiz-adv-x="900" d="M800 0h-100v135q-8 -9 -17 -18q-117 -117 -283 -117t-283 117t-117 283v600h100v-600q0 -124 88 -212t212 -88t212 88t88 212v600h100v-1000zM275 1300h100v100h-100v-100zM425 1300h100v100h-100v-100z" />
<glyph unicode="&#xfd;" d="M429 0l-429 1000h110l376 -878l376 878h109l-603 -1400h-108zM608 1373l-93 37l-91 -233l93 -37z" />
<glyph unicode="&#xfe;" d="M100 900h525q155 0 265 -110t110 -265t-110 -265t-265 -110h-525v-450h-100v1600h100v-400zM100 250h525q114 0 194.5 80.5t80.5 194.5t-80.5 194.5t-194.5 80.5h-525v-550z" />
<glyph unicode="&#xff;" d="M429 0l-429 1000h110l376 -878l376 878h109l-603 -1400h-108zM361 1300h100v100h-100v-100zM511 1300h100v100h-100v-100z" />
<glyph unicode="&#x131;" horiz-adv-x="200" d="M100 1000v-1000h-100v1000h100z" />
<glyph unicode="&#x2c6;" horiz-adv-x="450" d="M13 1150l107 250h113l107 -250h-108l-55 128l-55 -128h-109z" />
<glyph unicode="&#x2c7;" horiz-adv-x="450" d="M122 1400l55 -128l55 128h108l-107 -250h-113l-107 250h109z" />
<glyph unicode="&#x2c9;" horiz-adv-x="600" d="M0 1274h500v100h-500v-100z" />
<glyph unicode="&#x2d8;" horiz-adv-x="550" d="M350 1400h100v-5q0 -93 -66 -159t-159 -66t-159 66t-66 159v5h100v-5q0 -52 36.5 -88.5t88.5 -36.5t88.5 36.5t36.5 88.5v5z" />
<glyph unicode="&#x2d9;" horiz-adv-x="508" d="M0 1198h84.998v84.998h-84.998v-84.998z" />
<glyph unicode="&#x2da;" horiz-adv-x="400" d="M256 1356q44 -44 44 -106t-44 -106t-106 -44t-106 44t-44 106t44 106t106 44t106 -44zM150 1300q-21 0 -35.5 -14.5t-14.5 -35.5t14.5 -35.5t35.5 -14.5t35.5 14.5t14.5 35.5t-14.5 35.5t-35.5 14.5z" />
<glyph unicode="&#x2dc;" horiz-adv-x="600" d="M250 1275q100 -50 250 0v100q-150 -50 -250 0t-250 0v-100q150 50 250 0z" />
<glyph unicode="&#x2dd;" horiz-adv-x="1024" d="M49 1373l-93 37l-91 -233l93 -37zM234 1373l-93 37l-91 -233l93 -37z" />
<glyph unicode="&#x2013;" horiz-adv-x="800" d="M0 650h700v100h-700v-100z" />
<glyph unicode="&#x2014;" horiz-adv-x="1200" d="M1100 650v100h-1100v-100h1100z" />
<glyph unicode="&#x2018;" horiz-adv-x="200" d="M142 1373l-93 37l-91 -233l93 -37z" />
<glyph unicode="&#x2019;" horiz-adv-x="200" d="M49 1140l93 37l-91 233l-93 -37z" />
<glyph unicode="&#x201a;" horiz-adv-x="200" d="M49 -135l93 37l-91 233l-93 -37z" />
<glyph unicode="&#x201c;" horiz-adv-x="458" d="M142 1373l-93 37l-91 -233l93 -37zM401 1373l-93 37l-91 -233l93 -37z" />
<glyph unicode="&#x201d;" horiz-adv-x="458" d="M49 1140l93 37l-91 233l-93 -37zM308 1140l93 37l-91 233l-93 -37z" />
<glyph unicode="&#x201e;" horiz-adv-x="458" d="M49 -135l93 37l-91 233l-93 -37zM308 -135l93 37l-91 233l-93 -37z" />
<glyph unicode="&#x2026;" horiz-adv-x="2048" d="M0 0h100v100h-100v-100zM683 0h100v100h-100v-100zM1366 0h100v100h-100v-100z" />
<glyph unicode="&#x2039;" horiz-adv-x="599" d="M499 861l-378 -162l378 -162v-109l-500 215v113l500 214v-109z" />
<glyph unicode="&#x203a;" horiz-adv-x="599" d="M-1 537l378 163l-378 161v109l500 -214v-113l-500 -215v109z" />
<glyph unicode="&#x2044;" horiz-adv-x="342" />
<glyph unicode="&#x20a3;" horiz-adv-x="1200" d="M0 409v-100h100v-309h100v309h800v100h-800v241h700v100h-700v550h900v100h-1000v-991h-100z" />
<glyph unicode="&#x20a4;" horiz-adv-x="1099" d="M99 800v100q0 207 146.5 353.5t353.5 146.5t353 -147l-70 -70q-117 117 -283 117t-283 -117t-117 -283v-100h600v-100h-600v-100h600v-100h-600v-400h800v-100h-1000v100h100v400h-100v100h100v100h-100v100h100z" />
<glyph unicode="&#x20a7;" horiz-adv-x="1840" d="M882 900q-25 -77 -81 -140q-99 -110 -238 -110h-473v-650h-90v1400h563q139 0 238 -110t99 -265q0 -13 -1 -25h51v400h100v-400h113q89 41 241 25q174 -20 324 -122l-48 -82q-148 94 -291 108q-130 13 -189 -17v-12h-19q-51 -37 -66 -100q-17 -68 20 -126q36 -58 103 -75 l320 -76q107 -25 164.5 -118t32.5 -199q-26 -107 -118 -164t-266 -38q-89 10 -171 41v-45q-104 0 -177 73t-73 177v650h-68zM1051 900h-1v-2q1 1 1 2zM1050 627v-377q0 -45 23 -80l22 37q148 -94 291 -108t201 23.5t73 105.5q17 68 -20 126q-36 58 -103 75l-320 77 q-107 24 -164 117q-2 2 -3 4zM800 945v55h9q1 12 1 25q0 114 -72.5 194.5t-174.5 80.5h-473v-550h473q102 0 175 81q45 50 62 114z" />
<glyph unicode="&#x20ac;" horiz-adv-x="1200" d="M1008 617v100h-838q1 52 9 100h829v100h-805q37 114 116 208q149 175 361 175q211 0 361 -175l59 70q-174 205 -420 205q-247 0 -421 -205q-105 -124 -147 -278h-104v-100h85q-7 -49 -8 -100h-77v-100h81q21 -237 170 -412q174 -205 421 -205q246 0 420 205l-59 71 q-150 -176 -361 -176q-212 0 -361 176q-124 145 -145 341h834z" />
<glyph unicode="&#x2116;" horiz-adv-x="1500" d="M900 159v1241h100v-1400h-119l-781 1241v-1241h-100v1400h119zM1356 1356q44 -44 44 -106t-44 -106t-106 -44t-106 44t-44 106t44 106t106 44t106 -44zM1250 1300q-21 0 -35.5 -14.5t-14.5 -35.5t14.5 -35.5t35.5 -14.5t35.5 14.5t14.5 35.5t-14.5 35.5t-35.5 14.5z" />
<glyph unicode="&#x2122;" horiz-adv-x="1180" d="M450.012 910.034h-450.012l0.450195 -40.0029h202.056v-520.031h45.001v520.031h202.505v40.0029zM518.009 465.207l-270.008 381.224v-496.431h-45.001v560.034h53.5518l261.457 -369.223l261.457 369.223h53.5518v-560.034h-45.002v496.431z" />
<glyph unicode="&#x25fc;" horiz-adv-x="1000" d="M0 1000h1000v-1000h-1000v1000z" />
<glyph unicode="&#xf001;" horiz-adv-x="1073" />
<glyph unicode="&#xf002;" horiz-adv-x="1081" />
</font>
</defs>
</svg>
